<svg width="128" height="128" viewBox="0 0 128 128" fill="none" xmlns="http://www.w3.org/2000/svg">
<g opacity="0.5">
<path opacity="0.2" d="M115 118C114.998 120.122 109.623 122.156 100.059 123.656C90.4953 125.155 77.5245 125.998 64 125.998C50.4755 125.998 37.5047 125.155 27.9406 123.656C18.3765 122.156 13.0023 120.122 13 118C12.9989 116.95 14.3172 115.909 16.8796 114.939C19.4421 113.968 23.1986 113.086 27.9345 112.343C32.6704 111.6 38.293 111.011 44.4811 110.609C50.6693 110.207 57.3019 110 64 110C70.6981 110 77.3307 110.207 83.5189 110.609C89.707 111.011 95.3296 111.6 100.066 112.343C104.801 113.086 108.558 113.968 111.12 114.939C113.683 115.909 115.001 116.95 115 118V118Z" fill="url(#paint0_radial_34:229)"/>
<g opacity="0.4">
<path opacity="0.4" d="M114.073 115.334H100.896V122H114.073V115.334Z" fill="url(#paint1_radial_34:229)"/>
<path opacity="0.4" d="M13.9273 122H27.1043V115.334H13.9273V122Z" fill="url(#paint2_radial_34:229)"/>
<path opacity="0.4" d="M100.896 115.334H27.1043V122H100.896V115.334Z" fill="url(#paint3_linear_34:229)"/>
</g>
<g opacity="0.4">
<path opacity="0.4" d="M114.073 115.334H100.896V122H114.073V115.334Z" fill="url(#paint4_radial_34:229)"/>
<path opacity="0.4" d="M13.9273 122H27.1043V115.334H13.9273V122Z" fill="url(#paint5_radial_34:229)"/>
<path opacity="0.4" d="M100.896 115.334H27.1043V122H100.896V115.334Z" fill="url(#paint6_linear_34:229)"/>
</g>
<g opacity="0.4">
<path opacity="0.4" d="M114.073 115.334H100.896V122H114.073V115.334Z" fill="url(#paint7_radial_34:229)"/>
<path opacity="0.4" d="M13.9273 122H27.1043V115.334H13.9273V122Z" fill="url(#paint8_radial_34:229)"/>
<path opacity="0.4" d="M100.896 115.334H27.1043V122H100.896V115.334Z" fill="url(#paint9_linear_34:229)"/>
</g>
</g>
<path d="M14 100C14 104.418 17.5817 108 22 108L106 108C110.418 108 114 104.418 114 100L114 35C114 29.4772 109.523 25 104 25L24 25C18.4772 25 14 29.4772 14 35L14 100Z" fill="url(#paint10_linear_34:229)"/>
<path d="M106 108.5L22 108.5C17.3056 108.5 13.5 104.694 13.5 100L13.5 35C13.5 29.201 18.201 24.5 24 24.5L104 24.5C109.799 24.5 114.5 29.201 114.5 35L114.5 100C114.5 104.694 110.694 108.5 106 108.5Z" stroke="black" stroke-opacity="0.75"/>
<path d="M114 35C114 29.4772 109.523 25 104 25L24 25C18.4772 25 14 29.4772 14 35L14 94.1094C14 99.6322 18.4772 104.109 24 104.109L104 104.109C109.523 104.109 114 99.6322 114 94.1094L114 35Z" fill="white" fill-opacity="0.1"/>
<path d="M104 25.5L24 25.5C18.7533 25.5 14.5 29.7533 14.5 35L14.5 94.1094C14.5 99.3561 18.7533 103.609 24 103.609L104 103.609C109.247 103.609 113.5 99.3561 113.5 94.1094L113.5 35C113.5 29.7533 109.247 25.5 104 25.5Z" stroke="url(#paint11_linear_34:229)" stroke-opacity="0.5" stroke-linecap="round" stroke-linejoin="round"/>
<path d="M24 91C24 93.2091 25.7909 95 28 95H100C102.209 95 104 93.2091 104 91L104 35C104 33.3431 102.657 32 101 32L27 32C25.3431 32 24 33.3431 24 35L24 91Z" fill="black"/>
<path d="M28 94.5H100C101.933 94.5 103.5 92.933 103.5 91L103.5 35C103.5 33.6193 102.381 32.5 101 32.5L27 32.5C25.6193 32.5 24.5 33.6193 24.5 35L24.5 91C24.5 92.933 26.067 94.5 28 94.5Z" stroke="url(#paint12_linear_34:229)" stroke-opacity="0.5" stroke-linecap="round" stroke-linejoin="round"/>
<rect width="72" height="72" rx="5" transform="matrix(1 0 0 -1 28 91)" fill="#989898"/>
<rect x="-0.25" y="0.25" width="72.5" height="72.5" rx="5.25" transform="matrix(1 0 0 -1 28 91.5)" stroke="black" stroke-opacity="0.2" stroke-width="0.5"/>
<path d="M28 82C28 84.7614 30.2386 87 33 87H95C97.7614 87 100 84.7614 100 82L100 23C100 20.7909 98.2091 19 96 19H32C29.7909 19 28 20.7909 28 23L28 82Z" fill="url(#paint13_linear_34:229)"/>
<path d="M95 19.5L33 19.5C30.5147 19.5 28.5 21.5147 28.5 24L28.5 82C28.5 84.4853 30.5147 86.5 33 86.5L95 86.5C97.4853 86.5 99.5 84.4853 99.5 82L99.5 24C99.5 21.5147 97.4853 19.5 95 19.5Z" stroke="url(#paint14_linear_34:229)" stroke-linecap="round" stroke-linejoin="round"/>
<rect x="0.5" y="-0.5" width="73" height="73" rx="5.5" transform="matrix(-1 0 0 1 101 19)" stroke="black" stroke-opacity="0.4"/>
<g filter="url(#filter0_di_34:229)">
<circle cx="44" cy="55" r="6" fill="black" fill-opacity="0.65" shape-rendering="crispEdges"/>
</g>
<g filter="url(#filter1_di_34:229)">
<circle cx="64" cy="55" r="6" fill="black" fill-opacity="0.65" shape-rendering="crispEdges"/>
</g>
<g filter="url(#filter2_di_34:229)">
<circle cx="85" cy="55" r="6" fill="black" fill-opacity="0.65" shape-rendering="crispEdges"/>
</g>
<defs>
<filter id="filter0_di_34:229" x="38" y="49" width="12" height="13" filterUnits="userSpaceOnUse" color-interpolation-filters="sRGB">
<feFlood flood-opacity="0" result="BackgroundImageFix"/>
<feColorMatrix in="SourceAlpha" type="matrix" values="0 0 0 0 0 0 0 0 0 0 0 0 0 0 0 0 0 0 127 0" result="hardAlpha"/>
<feOffset dy="1"/>
<feComposite in2="hardAlpha" operator="out"/>
<feColorMatrix type="matrix" values="0 0 0 0 1 0 0 0 0 1 0 0 0 0 1 0 0 0 1 0"/>
<feBlend mode="normal" in2="BackgroundImageFix" result="effect1_dropShadow_34:229"/>
<feBlend mode="normal" in="SourceGraphic" in2="effect1_dropShadow_34:229" result="shape"/>
<feColorMatrix in="SourceAlpha" type="matrix" values="0 0 0 0 0 0 0 0 0 0 0 0 0 0 0 0 0 0 127 0" result="hardAlpha"/>
<feOffset dy="2"/>
<feComposite in2="hardAlpha" operator="arithmetic" k2="-1" k3="1"/>
<feColorMatrix type="matrix" values="0 0 0 0 0 0 0 0 0 0 0 0 0 0 0 0 0 0 0.25 0"/>
<feBlend mode="normal" in2="shape" result="effect2_innerShadow_34:229"/>
</filter>
<filter id="filter1_di_34:229" x="58" y="49" width="12" height="13" filterUnits="userSpaceOnUse" color-interpolation-filters="sRGB">
<feFlood flood-opacity="0" result="BackgroundImageFix"/>
<feColorMatrix in="SourceAlpha" type="matrix" values="0 0 0 0 0 0 0 0 0 0 0 0 0 0 0 0 0 0 127 0" result="hardAlpha"/>
<feOffset dy="1"/>
<feComposite in2="hardAlpha" operator="out"/>
<feColorMatrix type="matrix" values="0 0 0 0 1 0 0 0 0 1 0 0 0 0 1 0 0 0 1 0"/>
<feBlend mode="normal" in2="BackgroundImageFix" result="effect1_dropShadow_34:229"/>
<feBlend mode="normal" in="SourceGraphic" in2="effect1_dropShadow_34:229" result="shape"/>
<feColorMatrix in="SourceAlpha" type="matrix" values="0 0 0 0 0 0 0 0 0 0 0 0 0 0 0 0 0 0 127 0" result="hardAlpha"/>
<feOffset dy="2"/>
<feComposite in2="hardAlpha" operator="arithmetic" k2="-1" k3="1"/>
<feColorMatrix type="matrix" values="0 0 0 0 0 0 0 0 0 0 0 0 0 0 0 0 0 0 0.25 0"/>
<feBlend mode="normal" in2="shape" result="effect2_innerShadow_34:229"/>
</filter>
<filter id="filter2_di_34:229" x="79" y="49" width="12" height="13" filterUnits="userSpaceOnUse" color-interpolation-filters="sRGB">
<feFlood flood-opacity="0" result="BackgroundImageFix"/>
<feColorMatrix in="SourceAlpha" type="matrix" values="0 0 0 0 0 0 0 0 0 0 0 0 0 0 0 0 0 0 127 0" result="hardAlpha"/>
<feOffset dy="1"/>
<feComposite in2="hardAlpha" operator="out"/>
<feColorMatrix type="matrix" values="0 0 0 0 1 0 0 0 0 1 0 0 0 0 1 0 0 0 1 0"/>
<feBlend mode="normal" in2="BackgroundImageFix" result="effect1_dropShadow_34:229"/>
<feBlend mode="normal" in="SourceGraphic" in2="effect1_dropShadow_34:229" result="shape"/>
<feColorMatrix in="SourceAlpha" type="matrix" values="0 0 0 0 0 0 0 0 0 0 0 0 0 0 0 0 0 0 127 0" result="hardAlpha"/>
<feOffset dy="2"/>
<feComposite in2="hardAlpha" operator="arithmetic" k2="-1" k3="1"/>
<feColorMatrix type="matrix" values="0 0 0 0 0 0 0 0 0 0 0 0 0 0 0 0 0 0 0.25 0"/>
<feBlend mode="normal" in2="shape" result="effect2_innerShadow_34:229"/>
</filter>
<radialGradient id="paint0_radial_34:229" cx="0" cy="0" r="1" gradientUnits="userSpaceOnUse" gradientTransform="translate(64 118) scale(51 7.99896)">
<stop/>
<stop offset="1" stop-opacity="0"/>
</radialGradient>
<radialGradient id="paint1_radial_34:229" cx="0" cy="0" r="1" gradientUnits="userSpaceOnUse" gradientTransform="translate(100.877 118.667) scale(13.202 3.3329)">
<stop stop-color="#181818"/>
<stop offset="1" stop-color="#181818" stop-opacity="0"/>
</radialGradient>
<radialGradient id="paint2_radial_34:229" cx="0" cy="0" r="1" gradientUnits="userSpaceOnUse" gradientTransform="translate(27.1228 118.667) rotate(180) scale(13.202 3.3329)">
<stop stop-color="#181818"/>
<stop offset="1" stop-color="#181818" stop-opacity="0"/>
</radialGradient>
<linearGradient id="paint3_linear_34:229" x1="66.7885" y1="122.026" x2="66.7885" y2="115.333" gradientUnits="userSpaceOnUse">
<stop stop-color="#181818" stop-opacity="0"/>
<stop offset="0.5" stop-color="#181818"/>
<stop offset="1" stop-color="#181818" stop-opacity="0"/>
</linearGradient>
<radialGradient id="paint4_radial_34:229" cx="0" cy="0" r="1" gradientUnits="userSpaceOnUse" gradientTransform="translate(100.877 118.667) scale(13.202 3.3329)">
<stop stop-color="#181818"/>
<stop offset="1" stop-color="#181818" stop-opacity="0"/>
</radialGradient>
<radialGradient id="paint5_radial_34:229" cx="0" cy="0" r="1" gradientUnits="userSpaceOnUse" gradientTransform="translate(27.1228 118.667) rotate(180) scale(13.202 3.3329)">
<stop stop-color="#181818"/>
<stop offset="1" stop-color="#181818" stop-opacity="0"/>
</radialGradient>
<linearGradient id="paint6_linear_34:229" x1="66.7885" y1="122.026" x2="66.7885" y2="115.333" gradientUnits="userSpaceOnUse">
<stop stop-color="#181818" stop-opacity="0"/>
<stop offset="0.5" stop-color="#181818"/>
<stop offset="1" stop-color="#181818" stop-opacity="0"/>
</linearGradient>
<radialGradient id="paint7_radial_34:229" cx="0" cy="0" r="1" gradientUnits="userSpaceOnUse" gradientTransform="translate(100.877 118.667) scale(13.202 3.3329)">
<stop stop-color="#181818"/>
<stop offset="1" stop-color="#181818" stop-opacity="0"/>
</radialGradient>
<radialGradient id="paint8_radial_34:229" cx="0" cy="0" r="1" gradientUnits="userSpaceOnUse" gradientTransform="translate(27.1228 118.667) rotate(180) scale(13.202 3.3329)">
<stop stop-color="#181818"/>
<stop offset="1" stop-color="#181818" stop-opacity="0"/>
</radialGradient>
<linearGradient id="paint9_linear_34:229" x1="66.7885" y1="122.026" x2="66.7885" y2="115.333" gradientUnits="userSpaceOnUse">
<stop stop-color="#181818" stop-opacity="0"/>
<stop offset="0.5" stop-color="#181818"/>
<stop offset="1" stop-color="#181818" stop-opacity="0"/>
</linearGradient>
<linearGradient id="paint10_linear_34:229" x1="64" y1="108" x2="64" y2="25" gradientUnits="userSpaceOnUse">
<stop stop-color="#212121"/>
<stop offset="1" stop-color="#555555"/>
</linearGradient>
<linearGradient id="paint11_linear_34:229" x1="64" y1="23.931" x2="64" y2="105.178" gradientUnits="userSpaceOnUse">
<stop stop-color="white"/>
<stop offset="0.0631645" stop-color="white" stop-opacity="0.235294"/>
<stop offset="0.950563" stop-color="white" stop-opacity="0.156863"/>
<stop offset="1" stop-color="white" stop-opacity="0.392157"/>
</linearGradient>
<linearGradient id="paint12_linear_34:229" x1="64" y1="95.8514" x2="64" y2="31.1486" gradientUnits="userSpaceOnUse">
<stop stop-color="white"/>
<stop offset="0.0631645" stop-color="white" stop-opacity="0.235294"/>
<stop offset="0.950563" stop-color="white" stop-opacity="0.156863"/>
<stop offset="1" stop-color="white" stop-opacity="0.392157"/>
</linearGradient>
<linearGradient id="paint13_linear_34:229" x1="64" y1="87" x2="64" y2="19" gradientUnits="userSpaceOnUse">
<stop stop-color="white"/>
<stop offset="1" stop-color="white" stop-opacity="0.1"/>
</linearGradient>
<linearGradient id="paint14_linear_34:229" x1="64" y1="18.0811" x2="64" y2="87.9189" gradientUnits="userSpaceOnUse">
<stop stop-color="white"/>
<stop offset="0.0631645" stop-color="white" stop-opacity="0.235294"/>
<stop offset="0.950563" stop-color="white" stop-opacity="0.156863"/>
<stop offset="1" stop-color="white" stop-opacity="0.392157"/>
</linearGradient>
</defs>
</svg>
