<svg width="32" height="32" viewBox="0 0 32 32" fill="none" xmlns="http://www.w3.org/2000/svg">
<g opacity="0.5">
<path opacity="0.2" d="M30 30.0003C29.9994 30.5307 28.5241 31.0393 25.8987 31.4143C23.2732 31.7893 19.7126 32 16 32C12.2874 32 8.72679 31.7893 6.10135 31.4143C3.47591 31.0393 2.00063 30.5307 2 30.0003C1.99969 29.7377 2.36158 29.4776 3.065 29.2349C3.76843 28.9922 4.79961 28.7717 6.09966 28.5859C7.39971 28.4002 8.94317 28.2528 10.6419 28.1523C12.3406 28.0517 14.1613 28 16 28C17.8387 28 19.6594 28.0517 21.3581 28.1523C23.0568 28.2528 24.6003 28.4002 25.9003 28.5859C27.2004 28.7717 28.2316 28.9922 28.935 29.2349C29.6384 29.4776 30.0003 29.7377 30 30.0003V30.0003Z" fill="url(#paint0_radial_34:166)"/>
<g opacity="0.4">
<path opacity="0.4" d="M29.7455 29.3333H26.1282V31H29.7455V29.3333Z" fill="url(#paint1_radial_34:166)"/>
<path opacity="0.4" d="M2.25455 31H5.87177V29.3333H2.25455V31Z" fill="url(#paint2_radial_34:166)"/>
<path opacity="0.4" d="M26.1282 29.3333H5.87177V31H26.1282V29.3333Z" fill="url(#paint3_linear_34:166)"/>
</g>
<g opacity="0.4">
<path opacity="0.4" d="M29.7455 29.3333H26.1282V31H29.7455V29.3333Z" fill="url(#paint4_radial_34:166)"/>
<path opacity="0.4" d="M2.25455 31H5.87177V29.3333H2.25455V31Z" fill="url(#paint5_radial_34:166)"/>
<path opacity="0.4" d="M26.1282 29.3333H5.87177V31H26.1282V29.3333Z" fill="url(#paint6_linear_34:166)"/>
</g>
<g opacity="0.4">
<path opacity="0.4" d="M29.7455 29.3333H26.1282V31H29.7455V29.3333Z" fill="url(#paint7_radial_34:166)"/>
<path opacity="0.4" d="M2.25455 31H5.87177V29.3333H2.25455V31Z" fill="url(#paint8_radial_34:166)"/>
<path opacity="0.4" d="M26.1282 29.3333H5.87177V31H26.1282V29.3333Z" fill="url(#paint9_linear_34:166)"/>
</g>
</g>
<rect width="26" height="21" rx="2" transform="matrix(1 0 0 -1 3 27)" fill="url(#paint10_linear_34:166)"/>
<rect x="-0.5" y="0.5" width="27" height="22" rx="2.5" transform="matrix(1 0 0 -1 3 28)" stroke="black" stroke-opacity="0.75"/>
<rect width="26" height="19" rx="2" transform="matrix(-1 0 0 1 29 6)" fill="white" fill-opacity="0.1"/>
<rect x="-0.5" y="0.5" width="25" height="18" rx="1.5" transform="matrix(-1 0 0 1 28 6)" stroke="url(#paint11_linear_34:166)" stroke-opacity="0.5" stroke-linecap="round" stroke-linejoin="round"/>
<rect width="20" height="14" rx="2" transform="matrix(1 0 0 -1 6 22)" fill="black"/>
<rect x="0.5" y="-0.5" width="19" height="13" rx="1.5" transform="matrix(1 0 0 -1 6 21)" stroke="url(#paint12_linear_34:166)" stroke-opacity="0.5" stroke-linecap="round" stroke-linejoin="round"/>
<rect width="18" height="18" rx="2" transform="matrix(1 0 0 -1 7 20)" fill="#989898"/>
<rect x="-0.25" y="0.25" width="18.5" height="18.5" rx="2.25" transform="matrix(1 0 0 -1 7 20.5)" stroke="black" stroke-opacity="0.2" stroke-width="0.5"/>
<rect width="18" height="17" rx="2" transform="matrix(1 0 0 -1 7 19)" fill="url(#paint13_linear_34:166)"/>
<rect x="-0.5" y="0.5" width="17" height="16" rx="1.5" transform="matrix(-1 0 0 1 24 2)" stroke="url(#paint14_linear_34:166)" stroke-linecap="round" stroke-linejoin="round"/>
<rect x="0.5" y="-0.5" width="19" height="19" rx="2.5" transform="matrix(-1 0 0 1 26 2)" stroke="black" stroke-opacity="0.4"/>
<g filter="url(#filter0_di_34:166)">
<circle cx="11" cy="10.5" r="1.5" fill="black" fill-opacity="0.65" shape-rendering="crispEdges"/>
</g>
<g filter="url(#filter1_di_34:166)">
<circle cx="16" cy="10.5" r="1.5" fill="black" fill-opacity="0.65" shape-rendering="crispEdges"/>
</g>
<g filter="url(#filter2_di_34:166)">
<circle cx="21" cy="10.5" r="1.5" fill="black" fill-opacity="0.65" shape-rendering="crispEdges"/>
</g>
<defs>
<filter id="filter0_di_34:166" x="9.5" y="9" width="3" height="4" filterUnits="userSpaceOnUse" color-interpolation-filters="sRGB">
<feFlood flood-opacity="0" result="BackgroundImageFix"/>
<feColorMatrix in="SourceAlpha" type="matrix" values="0 0 0 0 0 0 0 0 0 0 0 0 0 0 0 0 0 0 127 0" result="hardAlpha"/>
<feOffset dy="1"/>
<feComposite in2="hardAlpha" operator="out"/>
<feColorMatrix type="matrix" values="0 0 0 0 1 0 0 0 0 1 0 0 0 0 1 0 0 0 1 0"/>
<feBlend mode="normal" in2="BackgroundImageFix" result="effect1_dropShadow_34:166"/>
<feBlend mode="normal" in="SourceGraphic" in2="effect1_dropShadow_34:166" result="shape"/>
<feColorMatrix in="SourceAlpha" type="matrix" values="0 0 0 0 0 0 0 0 0 0 0 0 0 0 0 0 0 0 127 0" result="hardAlpha"/>
<feOffset dy="2"/>
<feComposite in2="hardAlpha" operator="arithmetic" k2="-1" k3="1"/>
<feColorMatrix type="matrix" values="0 0 0 0 0 0 0 0 0 0 0 0 0 0 0 0 0 0 0.25 0"/>
<feBlend mode="normal" in2="shape" result="effect2_innerShadow_34:166"/>
</filter>
<filter id="filter1_di_34:166" x="14.5" y="9" width="3" height="4" filterUnits="userSpaceOnUse" color-interpolation-filters="sRGB">
<feFlood flood-opacity="0" result="BackgroundImageFix"/>
<feColorMatrix in="SourceAlpha" type="matrix" values="0 0 0 0 0 0 0 0 0 0 0 0 0 0 0 0 0 0 127 0" result="hardAlpha"/>
<feOffset dy="1"/>
<feComposite in2="hardAlpha" operator="out"/>
<feColorMatrix type="matrix" values="0 0 0 0 1 0 0 0 0 1 0 0 0 0 1 0 0 0 1 0"/>
<feBlend mode="normal" in2="BackgroundImageFix" result="effect1_dropShadow_34:166"/>
<feBlend mode="normal" in="SourceGraphic" in2="effect1_dropShadow_34:166" result="shape"/>
<feColorMatrix in="SourceAlpha" type="matrix" values="0 0 0 0 0 0 0 0 0 0 0 0 0 0 0 0 0 0 127 0" result="hardAlpha"/>
<feOffset dy="2"/>
<feComposite in2="hardAlpha" operator="arithmetic" k2="-1" k3="1"/>
<feColorMatrix type="matrix" values="0 0 0 0 0 0 0 0 0 0 0 0 0 0 0 0 0 0 0.25 0"/>
<feBlend mode="normal" in2="shape" result="effect2_innerShadow_34:166"/>
</filter>
<filter id="filter2_di_34:166" x="19.5" y="9" width="3" height="4" filterUnits="userSpaceOnUse" color-interpolation-filters="sRGB">
<feFlood flood-opacity="0" result="BackgroundImageFix"/>
<feColorMatrix in="SourceAlpha" type="matrix" values="0 0 0 0 0 0 0 0 0 0 0 0 0 0 0 0 0 0 127 0" result="hardAlpha"/>
<feOffset dy="1"/>
<feComposite in2="hardAlpha" operator="out"/>
<feColorMatrix type="matrix" values="0 0 0 0 1 0 0 0 0 1 0 0 0 0 1 0 0 0 1 0"/>
<feBlend mode="normal" in2="BackgroundImageFix" result="effect1_dropShadow_34:166"/>
<feBlend mode="normal" in="SourceGraphic" in2="effect1_dropShadow_34:166" result="shape"/>
<feColorMatrix in="SourceAlpha" type="matrix" values="0 0 0 0 0 0 0 0 0 0 0 0 0 0 0 0 0 0 127 0" result="hardAlpha"/>
<feOffset dy="2"/>
<feComposite in2="hardAlpha" operator="arithmetic" k2="-1" k3="1"/>
<feColorMatrix type="matrix" values="0 0 0 0 0 0 0 0 0 0 0 0 0 0 0 0 0 0 0.25 0"/>
<feBlend mode="normal" in2="shape" result="effect2_innerShadow_34:166"/>
</filter>
<radialGradient id="paint0_radial_34:166" cx="0" cy="0" r="1" gradientUnits="userSpaceOnUse" gradientTransform="translate(16 30.0003) scale(14 2)">
<stop/>
<stop offset="1" stop-opacity="0"/>
</radialGradient>
<radialGradient id="paint1_radial_34:166" cx="0" cy="0" r="1" gradientUnits="userSpaceOnUse" gradientTransform="translate(26.1232 30.1666) scale(3.62407 0.833333)">
<stop stop-color="#181818"/>
<stop offset="1" stop-color="#181818" stop-opacity="0"/>
</radialGradient>
<radialGradient id="paint2_radial_34:166" cx="0" cy="0" r="1" gradientUnits="userSpaceOnUse" gradientTransform="translate(5.87685 30.1667) rotate(180) scale(3.62407 0.833334)">
<stop stop-color="#181818"/>
<stop offset="1" stop-color="#181818" stop-opacity="0"/>
</radialGradient>
<linearGradient id="paint3_linear_34:166" x1="16.7655" y1="31.0066" x2="16.7655" y2="29.3332" gradientUnits="userSpaceOnUse">
<stop stop-color="#181818" stop-opacity="0"/>
<stop offset="0.5" stop-color="#181818"/>
<stop offset="1" stop-color="#181818" stop-opacity="0"/>
</linearGradient>
<radialGradient id="paint4_radial_34:166" cx="0" cy="0" r="1" gradientUnits="userSpaceOnUse" gradientTransform="translate(26.1232 30.1666) scale(3.62407 0.833333)">
<stop stop-color="#181818"/>
<stop offset="1" stop-color="#181818" stop-opacity="0"/>
</radialGradient>
<radialGradient id="paint5_radial_34:166" cx="0" cy="0" r="1" gradientUnits="userSpaceOnUse" gradientTransform="translate(5.87685 30.1667) rotate(180) scale(3.62407 0.833334)">
<stop stop-color="#181818"/>
<stop offset="1" stop-color="#181818" stop-opacity="0"/>
</radialGradient>
<linearGradient id="paint6_linear_34:166" x1="16.7655" y1="31.0066" x2="16.7655" y2="29.3332" gradientUnits="userSpaceOnUse">
<stop stop-color="#181818" stop-opacity="0"/>
<stop offset="0.5" stop-color="#181818"/>
<stop offset="1" stop-color="#181818" stop-opacity="0"/>
</linearGradient>
<radialGradient id="paint7_radial_34:166" cx="0" cy="0" r="1" gradientUnits="userSpaceOnUse" gradientTransform="translate(26.1232 30.1666) scale(3.62407 0.833333)">
<stop stop-color="#181818"/>
<stop offset="1" stop-color="#181818" stop-opacity="0"/>
</radialGradient>
<radialGradient id="paint8_radial_34:166" cx="0" cy="0" r="1" gradientUnits="userSpaceOnUse" gradientTransform="translate(5.87685 30.1667) rotate(180) scale(3.62407 0.833334)">
<stop stop-color="#181818"/>
<stop offset="1" stop-color="#181818" stop-opacity="0"/>
</radialGradient>
<linearGradient id="paint9_linear_34:166" x1="16.7655" y1="31.0066" x2="16.7655" y2="29.3332" gradientUnits="userSpaceOnUse">
<stop stop-color="#181818" stop-opacity="0"/>
<stop offset="0.5" stop-color="#181818"/>
<stop offset="1" stop-color="#181818" stop-opacity="0"/>
</linearGradient>
<linearGradient id="paint10_linear_34:166" x1="13" y1="0" x2="13" y2="21" gradientUnits="userSpaceOnUse">
<stop stop-color="#212121"/>
<stop offset="1" stop-color="#555555"/>
</linearGradient>
<linearGradient id="paint11_linear_34:166" x1="13" y1="-0.256757" x2="13" y2="19.2568" gradientUnits="userSpaceOnUse">
<stop stop-color="white"/>
<stop offset="0.0631645" stop-color="white" stop-opacity="0.235294"/>
<stop offset="0.950563" stop-color="white" stop-opacity="0.156863"/>
<stop offset="1" stop-color="white" stop-opacity="0.392157"/>
</linearGradient>
<linearGradient id="paint12_linear_34:166" x1="10" y1="-0.189189" x2="10" y2="14.1892" gradientUnits="userSpaceOnUse">
<stop stop-color="white"/>
<stop offset="0.0631645" stop-color="white" stop-opacity="0.235294"/>
<stop offset="0.950563" stop-color="white" stop-opacity="0.156863"/>
<stop offset="1" stop-color="white" stop-opacity="0.392157"/>
</linearGradient>
<linearGradient id="paint13_linear_34:166" x1="9" y1="0" x2="9" y2="17" gradientUnits="userSpaceOnUse">
<stop stop-color="white"/>
<stop offset="1" stop-color="white" stop-opacity="0.1"/>
</linearGradient>
<linearGradient id="paint14_linear_34:166" x1="9" y1="-0.22973" x2="9" y2="17.2297" gradientUnits="userSpaceOnUse">
<stop stop-color="white"/>
<stop offset="0.0631645" stop-color="white" stop-opacity="0.235294"/>
<stop offset="0.950563" stop-color="white" stop-opacity="0.156863"/>
<stop offset="1" stop-color="white" stop-opacity="0.392157"/>
</linearGradient>
</defs>
</svg>
