<svg width="32" height="32" viewBox="0 0 32 32" fill="none" xmlns="http://www.w3.org/2000/svg">
<path d="M16.0001 1.98633C15.9145 1.98628 15.8298 1.99873 15.7443 2H15.0001V2.03906C14.1189 2.09154 13.2434 2.19032 12.3927 2.37891C11.0182 2.68409 9.53309 3.50617 8.99426 5.09766C8.98536 5.12402 8.97752 5.15073 8.97082 5.17773C8.96532 5.19975 8.96312 5.20802 8.96102 5.2168C8.96012 5.2203 8.95952 5.22271 8.95902 5.22461C8.36518 6.92346 8.37285 8.59402 8.20902 10.0488C8.19231 10.1193 8.18318 10.1913 8.18168 10.2637C8.18118 10.2702 8.18018 10.2767 8.17968 10.2832C8.03481 12.5136 7.97352 14.7553 7.99999 17H8.00779C8.04012 19.9039 8.22263 22.8146 8.67381 25.707C8.67445 25.7587 8.67901 25.8103 8.68748 25.8613C8.68918 25.8757 8.69108 25.89 8.69338 25.9043C8.98296 27.3747 9.96232 28.9965 11.793 29.4336C11.8303 29.4429 11.8681 29.4501 11.9063 29.4551C13.2321 29.8373 14.6061 30.0107 15.9746 30.0137C17.3598 30.015 18.7497 29.842 20.0918 29.4551C20.1299 29.4501 20.1678 29.4429 20.2051 29.4336C22.0358 28.9965 23.0151 27.3747 23.3047 25.9043C23.307 25.89 23.3089 25.8757 23.3106 25.8613C23.3191 25.8103 23.3236 25.7587 23.3243 25.707C23.7755 22.8146 23.958 19.9039 23.9904 17H23.9982C24.0246 14.7553 23.9632 12.5136 23.8185 10.2832C23.818 10.2767 23.817 10.2702 23.8165 10.2637C23.815 10.1913 23.8058 10.1193 23.7891 10.0488C23.6253 8.59403 23.633 6.92347 23.0391 5.22461C23.0386 5.22271 23.038 5.2203 23.0371 5.2168C23.035 5.20802 23.0328 5.19976 23.0273 5.17774C23.0206 5.15074 23.0128 5.12402 23.0039 5.09766C22.4652 3.50617 20.9801 2.6841 19.6056 2.37891C18.4338 2.11911 17.2194 1.98582 16.0001 1.98633L16.0001 1.98633ZM15.9806 3H15.9845C15.9874 2.99991 15.9914 2.99991 15.9943 3C16.4898 3.01892 16.9995 3.04813 17.5099 3.08984C17.6098 3.09939 17.7092 3.10574 17.8087 3.11719C18.3237 3.16878 18.8357 3.24039 19.3361 3.36719C19.3521 3.37069 19.3689 3.37145 19.3849 3.375C19.7187 3.4491 20.0475 3.56217 20.3595 3.70703L20.3673 3.71094C20.3674 3.71095 20.371 3.71226 20.3732 3.71289C20.3781 3.71435 20.3842 3.71598 20.3869 3.7168C20.3908 3.71943 20.3944 3.72242 20.4006 3.72657C20.5383 3.79229 20.6709 3.86519 20.799 3.94532C20.8494 3.97599 20.8999 4.00583 20.9474 4.03907C21.4413 4.38198 21.839 4.84019 22.0373 5.42579C22.04 5.43654 22.045 5.45878 22.0451 5.45899L22.0471 5.46876C22.0527 5.48422 22.0553 5.50015 22.0608 5.51564C22.1824 5.8255 22.2611 6.14766 22.3264 6.47267C22.377 6.70025 22.4153 6.93014 22.4514 7.16017V7.16212C22.5409 7.73435 22.6057 8.30808 22.6545 8.88477C22.6661 8.99733 22.6748 9.11006 22.6858 9.22266C22.7134 9.54724 22.7408 9.87403 22.7776 10.1953C22.7814 10.2292 22.7886 10.2625 22.799 10.2949V10.2969C22.8089 10.449 22.8096 10.6018 22.8186 10.754C22.9513 12.5789 22.9852 14.4089 22.9768 16.2383C22.9794 16.4922 22.9856 16.7461 22.9827 17.0001H22.9729C22.963 17.7076 22.9475 18.4141 22.9201 19.1211C22.9173 19.1954 22.9114 19.2695 22.9084 19.3438C22.8761 20.1305 22.8504 20.918 22.799 21.7032V21.7052C22.7886 21.7376 22.7814 21.771 22.7776 21.8048C22.6366 23.0362 22.5982 24.3003 22.3264 25.5235C22.3172 25.5827 22.3124 25.6422 22.303 25.7013V25.7072C22.2457 25.9978 22.1582 26.2888 22.0393 26.5685C22.0387 26.571 22.0378 26.5724 22.0373 26.5744C22.0359 26.5776 22.0348 26.5809 22.0334 26.5842C22.0308 26.5918 22.0263 26.5981 22.0236 26.6057C21.874 27.0281 21.623 27.3849 21.3048 27.6779C21.0155 27.9707 20.6626 28.2009 20.2482 28.3479C20.1874 28.374 20.1226 28.3869 20.0607 28.4104C20.0289 28.4192 20.0013 28.4339 19.9689 28.4416C19.9649 28.4419 19.9611 28.4432 19.9572 28.4436C19.7677 28.5106 19.5793 28.5821 19.3849 28.6253C18.5999 28.7993 17.7937 28.9089 16.9826 28.9612C16.6556 28.9823 16.3282 28.9925 16.0001 28.9924C15.3594 28.9924 14.7202 28.9524 14.0861 28.8674C14.0659 28.8648 14.0456 28.8643 14.0255 28.8615C13.7623 28.8251 13.5006 28.7786 13.2404 28.7268C13.1767 28.7142 13.1124 28.7051 13.049 28.6916C12.7368 28.6247 12.4272 28.5472 12.1212 28.4572C12.12 28.4569 12.1185 28.4576 12.1173 28.4572C12.0885 28.4496 12.0591 28.4442 12.0294 28.4416C12.0281 28.4415 12.0268 28.4417 12.0255 28.4416C10.6753 28.1193 9.92737 26.9046 9.69155 25.7072V25.7013C9.2332 22.8215 9.05324 19.9116 9.02356 17H9.01576C9.01246 16.7063 9.01816 16.4127 9.02166 16.1191C9.02426 14.2563 9.07038 12.3941 9.18377 10.5391C9.18707 10.5288 9.18897 10.5182 9.19157 10.5078C9.19597 10.4376 9.19477 10.3671 9.19937 10.2969V10.2949C9.20981 10.2625 9.21705 10.2291 9.22085 10.1953C9.31415 9.38031 9.36151 8.55123 9.45911 7.72852C9.5349 7.02343 9.64539 6.32623 9.89465 5.67188C9.91689 5.60472 9.92697 5.53552 9.95129 5.46875L9.95329 5.45898C9.95339 5.45877 9.95839 5.43653 9.96109 5.42578C10.1041 5.00341 10.3492 4.64642 10.6603 4.35156C10.6621 4.34941 10.6644 4.34785 10.6662 4.3457C10.7055 4.29755 10.7317 4.24452 10.7736 4.19726C10.7774 4.19411 10.7807 4.19028 10.7854 4.18749C10.7913 4.1837 10.7971 4.1798 10.8029 4.17577C10.9259 4.094 11.0545 4.02761 11.1818 3.95703C11.6155 3.68239 12.1099 3.48679 12.6134 3.375C12.6224 3.37301 12.6318 3.37306 12.6407 3.37109C13.7239 3.08229 14.8745 3.0252 15.9806 3Z" fill="#555761"/>
<path opacity="0.7" fill-rule="evenodd" clip-rule="evenodd" d="M12.6465 9.35356L13.3536 8.64645L16 11.2929L18.6465 8.64645L19.3536 9.35356L16 12.7071L12.6465 9.35356Z" fill="#555761"/>
<path opacity="0.7" fill-rule="evenodd" clip-rule="evenodd" d="M13.6465 7.35356L14.3536 6.64645L16 8.2929L17.6465 6.64645L18.3536 7.35356L16 9.70711L13.6465 7.35356Z" fill="#555761"/>
<path opacity="0.7" fill-rule="evenodd" clip-rule="evenodd" d="M11.6465 11.3536L12.3536 10.6465L16 14.2929L19.6465 10.6465L20.3536 11.3536L16 15.7071L11.6465 11.3536Z" fill="#555761"/>
<path opacity="0.1" fill-rule="evenodd" clip-rule="evenodd" d="M16.0176 3C17.0926 3.02449 18.2092 3.08081 19.2655 3.34907C19.3053 3.35755 19.3451 3.36619 19.3847 3.37499C19.6455 3.43289 19.9025 3.51825 20.1523 3.61913L20.2288 3.65389L20.2655 3.66828C20.2971 3.68053 20.3287 3.69278 20.3594 3.70703L20.3672 3.71094L20.3731 3.71289L20.3868 3.7168L20.392 3.72054C20.3943 3.72228 20.397 3.72424 20.4004 3.72657C20.462 3.75595 20.5209 3.78918 20.5796 3.82268C20.6335 3.85012 20.6864 3.87794 20.7383 3.90624C20.7729 3.92697 20.8071 3.9482 20.8409 3.96994L20.8902 3.99699C20.9931 4.05339 21.096 4.10973 21.1953 4.17578C21.2011 4.17981 21.207 4.18371 21.2129 4.1875C21.2159 4.18934 21.2184 4.19163 21.2208 4.19388C21.2221 4.19504 21.2233 4.1962 21.2246 4.19727C21.2474 4.223 21.2656 4.25044 21.2838 4.27788C21.2989 4.30082 21.3141 4.32378 21.332 4.34571L21.3379 4.35157C21.349 4.36201 21.3588 4.37349 21.3683 4.38529C21.6605 4.6689 21.8924 5.00852 22.0311 5.40842L22.0371 5.42577C22.0389 5.43306 22.0418 5.44564 22.0435 5.45304L22.0449 5.45898L22.0469 5.46875C22.466 6.61912 22.5685 7.82614 22.6703 9.02533C22.6847 9.19499 22.6991 9.36498 22.7144 9.53416L22.7207 9.60352C22.7329 9.86532 22.7526 10.1228 22.7844 10.3736C22.7554 10.1411 22.7388 9.90203 22.7265 9.66015L22.7341 9.74687C22.7472 9.89699 22.7603 10.0471 22.7773 10.1953C22.7811 10.2291 22.7883 10.2625 22.7987 10.2949V10.2969C22.8034 10.3691 22.806 10.4414 22.8085 10.5137C22.8091 10.5162 22.8096 10.5188 22.8101 10.5213C22.8113 10.5273 22.8125 10.5333 22.8144 10.5391C22.8235 10.688 22.8294 10.8372 22.8353 10.9864L22.8362 11.0102C22.8504 11.266 22.8634 11.5219 22.8751 11.7779C22.8979 12.2261 22.915 12.6745 22.9277 13.1231C22.9326 13.2839 22.9366 13.4447 22.9406 13.6056L22.9414 13.6387C22.9433 13.7244 22.9459 13.8101 22.9485 13.8957C22.9518 14.0028 22.9551 14.11 22.9569 14.2171L22.957 14.2246C22.966 14.7662 22.971 15.3079 22.9727 15.8496C22.9728 15.8929 22.9737 15.9362 22.9746 15.9795C22.9755 16.026 22.9765 16.0726 22.9766 16.1191C22.9768 16.1386 22.9767 16.1581 22.9765 16.1776C22.9764 16.1978 22.9763 16.2181 22.9766 16.2382C22.9773 16.3102 22.9783 16.3822 22.9793 16.4541C22.9819 16.636 22.9845 16.818 22.9825 16.9999H22.9747C22.965 17.9548 22.9314 18.9097 22.8848 19.8632L22.8764 20.0778C22.8554 20.62 22.8343 21.1621 22.7989 21.7031V21.7051C22.7884 21.7375 22.7812 21.7709 22.7774 21.8047C22.7347 22.1778 22.701 22.5539 22.6672 22.9309C22.5925 23.7639 22.5174 24.6014 22.3438 25.4219C22.337 25.4663 22.3316 25.5108 22.3262 25.5553C22.3203 25.6039 22.3144 25.6526 22.3067 25.7012V25.7071C22.2163 26.1659 22.0486 26.6264 21.8028 27.0391C21.7435 27.1398 21.6789 27.2349 21.6075 27.3262C21.2177 27.8548 20.6807 28.2724 19.9727 28.4414H19.9688L19.9644 28.4421C19.9619 28.4426 19.9595 28.4432 19.9571 28.4434L19.8771 28.4719C19.7144 28.53 19.5518 28.588 19.3848 28.6251C18.9252 28.727 18.4573 28.8003 17.9864 28.8595L17.9727 28.8615C17.9622 28.8629 17.9516 28.8638 17.9411 28.8646C17.9314 28.8654 17.9218 28.8661 17.9122 28.8674C17.875 28.8723 17.8377 28.8752 17.8003 28.8782C17.7685 28.8807 17.7368 28.8831 17.7051 28.8869C17.6379 28.8942 17.5707 28.9019 17.5035 28.9097C17.3304 28.9298 17.1567 28.9499 16.9825 28.9611C16.9783 28.9614 16.974 28.9612 16.9697 28.9611C16.9655 28.961 16.9613 28.9608 16.9571 28.9611C16.6379 28.9817 16.3185 28.9923 15.9981 28.9924C15.6784 28.9923 15.3596 28.9817 15.0411 28.9611C15.0399 28.961 15.0387 28.961 15.0376 28.961C15.0361 28.9609 15.0347 28.961 15.0333 28.961C15.0274 28.9611 15.0215 28.9615 15.0157 28.9611C14.8413 28.9499 14.6681 28.9298 14.4949 28.9097C14.4276 28.902 14.3603 28.8942 14.293 28.8869C14.2532 28.8826 14.2133 28.8791 14.1734 28.8757C14.1194 28.871 14.0654 28.8663 14.0118 28.8595C13.5408 28.8002 13.0729 28.7269 12.6133 28.625C12.4463 28.5879 12.2837 28.5299 12.121 28.4718L12.041 28.4434C12.0371 28.443 12.0333 28.4418 12.0293 28.4414H12.0254C11.3173 28.2723 10.7785 27.8548 10.3887 27.3261C10.3155 27.2326 10.2498 27.1346 10.1895 27.0312C9.94633 26.6206 9.78117 26.1628 9.69141 25.707V25.7011C9.68369 25.6526 9.67778 25.6039 9.67188 25.5552C9.66648 25.5107 9.66109 25.4662 9.6543 25.4219C9.48072 24.6014 9.40563 23.7639 9.33095 22.9309C9.29715 22.5539 9.26343 22.1778 9.22071 21.8047C9.21691 21.7709 9.20967 21.7375 9.19923 21.7051V21.7031C9.16385 21.1625 9.14278 20.6206 9.1217 20.0788L9.11329 19.8633C9.06672 18.9098 9.03318 17.9549 9.02345 17H9.01565C9.01357 16.818 9.01616 16.6361 9.01876 16.4542C9.01978 16.3822 9.02081 16.3102 9.02155 16.2383C9.02181 16.2181 9.02169 16.1979 9.02156 16.1777C9.02144 16.1581 9.02131 16.1386 9.02155 16.1191C9.02161 16.073 9.02256 16.0269 9.02351 15.9808C9.0244 15.9371 9.0253 15.8934 9.02545 15.8496C9.02705 15.3079 9.03195 14.7662 9.04098 14.2247C9.04278 14.1145 9.04615 14.0045 9.04951 13.8944C9.05211 13.8093 9.05473 13.7238 9.05661 13.6387C9.06081 13.4668 9.06511 13.295 9.07028 13.1231C9.08734 12.5205 9.11242 11.9183 9.14841 11.3165C9.15403 11.2066 9.15837 11.0965 9.1627 10.9865C9.16858 10.8373 9.17446 10.688 9.18357 10.5391C9.18533 10.5337 9.18645 10.5281 9.18757 10.5226L9.18947 10.5137C9.19187 10.4414 9.19457 10.3691 9.19927 10.2969V10.2949C9.20971 10.2625 9.21695 10.2291 9.22075 10.1953C9.23421 10.0777 9.24475 9.9585 9.25528 9.83948C9.26056 9.77975 9.26589 9.71954 9.27153 9.66016L9.27743 9.60352C9.28251 9.54595 9.28795 9.48855 9.29339 9.43118C9.29998 9.36175 9.30657 9.2922 9.31251 9.22266C9.31734 9.17309 9.32172 9.1235 9.32611 9.0739C9.33167 9.01097 9.33727 8.94765 9.34376 8.88477C9.3467 8.84992 9.35129 8.81528 9.35587 8.78064L9.35939 8.75391L9.3667 8.6705C9.39428 8.35587 9.42172 8.04276 9.459 7.72852C9.53479 7.02343 9.64528 6.32623 9.89454 5.67187C9.90523 5.63961 9.9136 5.60693 9.92197 5.57426C9.92698 5.55468 9.932 5.53511 9.93751 5.51562L9.94105 5.50259C9.94407 5.49125 9.94708 5.47993 9.95118 5.46875L9.95318 5.45898L9.95454 5.45313C9.95624 5.44573 9.95914 5.43309 9.96098 5.42578C10.0461 5.17435 10.1764 4.95382 10.3262 4.74804C10.4041 4.64107 10.4898 4.54023 10.5821 4.44531C10.5953 4.43173 10.6067 4.41659 10.6181 4.40146C10.6312 4.38403 10.6443 4.36659 10.6602 4.35156L10.6661 4.3457C10.684 4.32378 10.6992 4.30085 10.7144 4.27792C10.7325 4.25048 10.7507 4.22299 10.7735 4.19726L10.7772 4.19393C10.7797 4.19166 10.7822 4.18935 10.7852 4.18749L10.7947 4.18128L10.8028 4.17577C10.9022 4.10972 11.005 4.05339 11.1079 3.99699L11.17 3.96288L11.1817 3.95702C11.1848 3.95515 11.1878 3.9531 11.1907 3.95104C11.1935 3.94908 11.1964 3.94711 11.1993 3.9453C11.2022 3.94352 11.2052 3.94194 11.2082 3.94039L11.2102 3.93933C11.2138 3.93751 11.2174 3.93568 11.2208 3.93358C11.2173 3.93574 11.214 3.93816 11.2108 3.94058C11.2077 3.94288 11.2046 3.94518 11.2013 3.94725C11.2774 3.89961 11.3556 3.85502 11.4355 3.81299C11.4886 3.7828 11.542 3.75311 11.5977 3.72656C11.6012 3.72417 11.604 3.72216 11.6064 3.72038L11.6078 3.71934L11.6113 3.71679L11.625 3.71288L11.6309 3.71093L11.6387 3.70702C11.6694 3.69277 11.7009 3.68053 11.7325 3.66829C11.7539 3.65998 11.7758 3.65151 11.7969 3.64257C12.0613 3.53013 12.3346 3.43689 12.6133 3.375C12.6178 3.374 12.6224 3.37352 12.627 3.37303C12.6316 3.37255 12.6361 3.37207 12.6406 3.37109C12.6452 3.36988 12.6498 3.369 12.6545 3.36812C12.659 3.36726 12.6635 3.3664 12.668 3.36523C13.7433 3.08264 14.8836 3.02499 15.9805 3H16.0176ZM9.04098 14.2247L9.04888 14.2266C9.04976 14.1786 9.05019 14.1306 9.05062 14.0826C9.05111 14.0277 9.05161 13.9729 9.05278 13.918C9.05228 13.9402 9.05105 13.9623 9.04983 13.9844C9.0486 14.0065 9.04738 14.0287 9.04688 14.0508C9.04623 14.0798 9.04508 14.1088 9.04393 14.1377C9.04278 14.1667 9.04163 14.1957 9.04098 14.2247ZM14.3535 6.64645L13.6464 7.35356L16 9.70711L18.3535 7.35356L17.6464 6.64645L16 8.2929L14.3535 6.64645ZM13.3535 8.64645L12.6464 9.35356L16 12.7071L19.3535 9.35356L18.6464 8.64645L16 11.2929L13.3535 8.64645ZM11.6464 11.3536L12.3535 10.6464L16 14.2929L19.6464 10.6464L20.3535 11.3536L16 15.7071L11.6464 11.3536Z" fill="#555761"/>
</svg>
