<svg width="32" height="32" viewBox="0 0 32 32" fill="none" xmlns="http://www.w3.org/2000/svg">
<path d="M15.9999 1.98633C16.0855 1.98628 16.1702 1.99873 16.2557 2H16.9999V2.03906C17.8811 2.09154 18.7566 2.19032 19.6073 2.37891C20.9818 2.68409 22.4669 3.50617 23.0057 5.09766C23.0146 5.12402 23.0225 5.15073 23.0292 5.17773C23.0347 5.19975 23.0369 5.20802 23.039 5.2168C23.0399 5.2203 23.0405 5.22271 23.041 5.22461C23.6348 6.92346 23.6271 8.59402 23.791 10.0488C23.8077 10.1193 23.8168 10.1913 23.8183 10.2637C23.8188 10.2702 23.8198 10.2767 23.8203 10.2832C23.9652 12.5136 24.0265 14.7553 24 17H23.9922C23.9599 19.9039 23.7774 22.8146 23.3262 25.707C23.3256 25.7587 23.321 25.8103 23.3125 25.8613C23.3108 25.8757 23.3089 25.89 23.3066 25.9043C23.017 27.3747 22.0377 28.9965 20.207 29.4336C20.1697 29.4429 20.1319 29.4501 20.0937 29.4551C18.7679 29.8373 17.3939 30.0107 16.0254 30.0137C14.6402 30.015 13.2503 29.842 11.9082 29.4551C11.8701 29.4501 11.8322 29.4429 11.7949 29.4336C9.96424 28.9965 8.98488 27.3747 8.69529 25.9043C8.69299 25.89 8.69109 25.8757 8.68939 25.8613C8.68089 25.8103 8.67636 25.7587 8.67572 25.707C8.22453 22.8146 8.04198 19.9039 8.00964 17H8.00184C7.97537 14.7553 8.03679 12.5136 8.18153 10.2832C8.18203 10.2767 8.18303 10.2702 8.18353 10.2637C8.18503 10.1913 8.19416 10.1193 8.21087 10.0488C8.3747 8.59403 8.36703 6.92347 8.96087 5.22461C8.96137 5.22271 8.96197 5.2203 8.96287 5.2168C8.96497 5.20802 8.96717 5.19976 8.97267 5.17774C8.97937 5.15074 8.98721 5.12402 8.99611 5.09766C9.53479 3.50617 11.0199 2.6841 12.3944 2.37891C13.5662 2.11911 14.7806 1.98582 15.9999 1.98633L15.9999 1.98633ZM16.0194 3H16.0155C16.0126 2.99991 16.0086 2.99991 16.0057 3C15.5102 3.01892 15.0005 3.04813 14.4901 3.08984C14.3902 3.09939 14.2908 3.10574 14.1913 3.11719C13.6763 3.16878 13.1643 3.24039 12.6639 3.36719C12.6479 3.37069 12.6311 3.37145 12.6151 3.375C12.2813 3.4491 11.9525 3.56217 11.6405 3.70703L11.6327 3.71094C11.6326 3.71095 11.629 3.71226 11.6268 3.71289C11.6219 3.71435 11.6158 3.71598 11.6131 3.7168C11.6092 3.71943 11.6056 3.72242 11.5994 3.72657C11.4617 3.79229 11.3291 3.86519 11.201 3.94532C11.1506 3.97599 11.1001 4.00583 11.0526 4.03907C10.5587 4.38198 10.161 4.84019 9.96272 5.42579C9.96002 5.43654 9.95502 5.45878 9.95492 5.45899L9.95292 5.46876C9.94732 5.48422 9.94472 5.50015 9.93925 5.51564C9.81763 5.8255 9.73894 6.14766 9.67362 6.47267C9.62295 6.70025 9.58465 6.93014 9.54862 7.16017V7.16212C9.45908 7.73435 9.39428 8.30808 9.3455 8.88477C9.33389 8.99733 9.32523 9.11006 9.31425 9.22266C9.28657 9.54724 9.25925 9.87403 9.22245 10.1953C9.21865 10.2292 9.21141 10.2625 9.20097 10.2949V10.2969C9.19107 10.449 9.19038 10.6018 9.18144 10.754C9.04873 12.5789 9.0148 14.4089 9.02323 16.2383C9.02063 16.4922 9.01443 16.7461 9.01733 17.0001H9.02713C9.03703 17.7076 9.05254 18.4141 9.07986 19.1211C9.08266 19.1954 9.08856 19.2695 9.09158 19.3438C9.12391 20.1305 9.14956 20.918 9.20096 21.7032V21.7052C9.2114 21.7376 9.21864 21.771 9.22244 21.8048C9.36344 23.0362 9.40178 24.3003 9.67361 25.5235C9.68281 25.5827 9.68764 25.6422 9.69705 25.7013V25.7072C9.75429 25.9978 9.84185 26.2888 9.96072 26.5685C9.96132 26.571 9.96222 26.5724 9.96272 26.5744C9.96412 26.5776 9.96522 26.5809 9.96662 26.5842C9.96922 26.5918 9.97372 26.5981 9.97642 26.6057C10.126 27.0281 10.377 27.3849 10.6952 27.6779C10.9845 27.9707 11.3374 28.2009 11.7518 28.3479C11.8126 28.374 11.8774 28.3869 11.9393 28.4104C11.9711 28.4192 11.9987 28.4339 12.0311 28.4416C12.0351 28.4419 12.0389 28.4432 12.0428 28.4436C12.2323 28.5106 12.4207 28.5821 12.6151 28.6253C13.4001 28.7993 14.2063 28.9089 15.0174 28.9612C15.3444 28.9823 15.6718 28.9925 15.9999 28.9924C16.6406 28.9924 17.2798 28.9524 17.9139 28.8674C17.9341 28.8648 17.9544 28.8643 17.9745 28.8615C18.2377 28.8251 18.4994 28.7786 18.7596 28.7268C18.8233 28.7142 18.8876 28.7051 18.951 28.6916C19.2632 28.6247 19.5728 28.5472 19.8788 28.4572C19.88 28.4569 19.8815 28.4576 19.8827 28.4572C19.9115 28.4496 19.9409 28.4442 19.9706 28.4416C19.9719 28.4415 19.9732 28.4417 19.9745 28.4416C21.3247 28.1193 22.0726 26.9046 22.3084 25.7072V25.7013C22.7668 22.8215 22.9468 19.9116 22.9764 17H22.9842C22.9875 16.7063 22.9818 16.4127 22.9783 16.1191C22.9757 14.2563 22.9296 12.3941 22.8162 10.5391C22.8129 10.5288 22.811 10.5182 22.8084 10.5078C22.804 10.4376 22.8052 10.3671 22.8006 10.2969V10.2949C22.7902 10.2625 22.783 10.2291 22.7792 10.1953C22.6859 9.38031 22.6385 8.55123 22.5409 7.72852C22.4651 7.02343 22.3546 6.32623 22.1053 5.67188C22.0831 5.60472 22.073 5.53552 22.0487 5.46875L22.0467 5.45898C22.0466 5.45877 22.0416 5.43653 22.0389 5.42578C21.8959 5.00341 21.6508 4.64642 21.3397 4.35156C21.3379 4.34941 21.3356 4.34785 21.3338 4.3457C21.2945 4.29755 21.2683 4.24452 21.2264 4.19726C21.2226 4.19411 21.2193 4.19028 21.2146 4.18749C21.2087 4.1837 21.2029 4.1798 21.1971 4.17577C21.0741 4.094 20.9455 4.02761 20.8182 3.95703C20.3845 3.68239 19.8901 3.48679 19.3866 3.375C19.3776 3.37301 19.3682 3.37306 19.3593 3.37109C18.2761 3.08229 17.1255 3.0252 16.0194 3Z" fill="#555761"/>
<path opacity="0.7" fill-rule="evenodd" clip-rule="evenodd" d="M16 12.2929L18.3536 14.6465L17.6465 15.3536L16 13.7071L14.3536 15.3536L13.6465 14.6465L16 12.2929Z" fill="#555761"/>
<path opacity="0.7" fill-rule="evenodd" clip-rule="evenodd" d="M16 9.29291L19.3536 12.6465L18.6465 13.3536L16 10.7071L13.3536 13.3536L12.6465 12.6465L16 9.29291Z" fill="#555761"/>
<path opacity="0.7" fill-rule="evenodd" clip-rule="evenodd" d="M16 6.29291L20.3536 10.6465L19.6465 11.3536L16 7.70712L12.3536 11.3536L11.6465 10.6465L16 6.29291Z" fill="#555761"/>
<path opacity="0.1" fill-rule="evenodd" clip-rule="evenodd" d="M15.9825 3C14.9075 3.02449 13.7909 3.08081 12.7345 3.34907C12.6947 3.35755 12.655 3.36619 12.6153 3.37499C12.3546 3.43289 12.0976 3.51825 11.8477 3.61913L11.7713 3.65389L11.7345 3.66828C11.7029 3.68053 11.6714 3.69278 11.6407 3.70703L11.6329 3.71094L11.627 3.71289L11.6133 3.7168L11.6081 3.72054C11.6064 3.72177 11.6046 3.7231 11.6025 3.72459C11.6016 3.72522 11.6007 3.72588 11.5996 3.72657C11.5381 3.75595 11.4792 3.78918 11.4205 3.82268C11.3666 3.85012 11.3137 3.87794 11.2618 3.90624C11.2272 3.92697 11.193 3.9482 11.1591 3.96994L11.1099 3.99699C11.0069 4.05339 10.9041 4.10973 10.8047 4.17578C10.7989 4.17981 10.7931 4.18371 10.7872 4.1875C10.7841 4.18934 10.7817 4.19163 10.7792 4.19388C10.778 4.19504 10.7767 4.1962 10.7754 4.19727C10.7526 4.223 10.7345 4.25044 10.7163 4.27788C10.7011 4.30082 10.6859 4.32378 10.668 4.34571L10.6621 4.35157C10.6511 4.36201 10.6413 4.37349 10.6318 4.38529C10.3396 4.6689 10.1076 5.00852 9.96892 5.40842L9.96297 5.42577C9.96115 5.433 9.9583 5.44542 9.95659 5.45285L9.95517 5.45898L9.95317 5.46875C9.53409 6.61912 9.4316 7.82614 9.32978 9.02533C9.31537 9.19499 9.30093 9.36498 9.28566 9.53416L9.27934 9.60352C9.26716 9.86532 9.24746 10.1228 9.21565 10.3736C9.24461 10.1411 9.26124 9.90203 9.27357 9.66015L9.26597 9.74687C9.25287 9.89699 9.23977 10.0471 9.22279 10.1953C9.21899 10.2291 9.21175 10.2625 9.20131 10.2949V10.2969C9.19661 10.3691 9.19401 10.4414 9.19151 10.5137C9.19094 10.5162 9.19043 10.5188 9.18992 10.5213C9.18871 10.5273 9.18751 10.5333 9.18561 10.5391C9.17651 10.688 9.17063 10.8372 9.16475 10.9864L9.16381 11.0102C9.14961 11.266 9.13669 11.5219 9.12495 11.7779C9.10217 12.2261 9.08502 12.6745 9.07232 13.1231C9.06745 13.2839 9.06346 13.4447 9.05947 13.6056L9.05865 13.6387C9.05677 13.7243 9.05416 13.8098 9.05155 13.8953C9.04829 14.002 9.04502 14.1093 9.04318 14.2161L9.04303 14.2246C9.03403 14.7662 9.02901 15.3079 9.0274 15.8496C9.02724 15.8929 9.02635 15.9362 9.02546 15.9795C9.02451 16.026 9.02355 16.0726 9.0235 16.1191C9.02327 16.1386 9.02339 16.1581 9.02352 16.1776C9.02364 16.1978 9.02377 16.2181 9.0235 16.2382C9.02276 16.3102 9.02174 16.3822 9.02071 16.4541C9.01812 16.636 9.01552 16.818 9.0176 16.9999H9.0254C9.0351 17.9548 9.06867 18.9097 9.11524 19.8632L9.12362 20.0778C9.14469 20.62 9.16577 21.1621 9.20118 21.7031V21.7051C9.21162 21.7375 9.21886 21.7709 9.22266 21.8047C9.26539 22.1778 9.2991 22.5539 9.3329 22.9309C9.40758 23.7639 9.48267 24.6014 9.65626 25.4219C9.66304 25.4663 9.66844 25.5108 9.67384 25.5553C9.67974 25.6039 9.68564 25.6526 9.69337 25.7012V25.7071C9.78374 26.1659 9.95141 26.6264 10.1973 27.0391C10.2565 27.1398 10.3211 27.2349 10.3926 27.3262C10.7824 27.8548 11.3193 28.2724 12.0273 28.4414H12.0313L12.0357 28.4421C12.0381 28.4426 12.0405 28.4432 12.043 28.4434L12.123 28.4719C12.2856 28.53 12.4482 28.588 12.6152 28.6251C13.0748 28.727 13.5428 28.8003 14.0137 28.8595L14.0273 28.8615C14.0379 28.8629 14.0484 28.8638 14.059 28.8646C14.0686 28.8654 14.0783 28.8661 14.0879 28.8674C14.125 28.8723 14.1624 28.8752 14.1997 28.8782C14.2315 28.8807 14.2633 28.8831 14.2949 28.8869C14.3622 28.8941 14.4293 28.9019 14.4965 28.9097C14.6696 28.9298 14.8433 28.9499 15.0176 28.9611C15.0218 28.9614 15.0261 28.9612 15.0303 28.9611C15.0345 28.961 15.0388 28.9608 15.043 28.9611C15.3621 28.9817 15.6816 28.9923 16.002 28.9924C16.3217 28.9923 16.6405 28.9817 16.959 28.9611C16.9616 28.9609 16.9642 28.9609 16.9668 28.961C16.9702 28.961 16.9737 28.9612 16.9771 28.9613C16.9795 28.9613 16.982 28.9613 16.9844 28.9611C17.1587 28.9499 17.332 28.9298 17.5052 28.9097C17.5724 28.902 17.6397 28.8942 17.707 28.8869C17.7468 28.8826 17.7867 28.8791 17.8267 28.8757C17.8806 28.871 17.9346 28.8663 17.9883 28.8595C18.4592 28.8002 18.9272 28.7269 19.3868 28.625C19.5538 28.5879 19.7164 28.5299 19.879 28.4718L19.959 28.4434C19.9629 28.443 19.9667 28.4418 19.9708 28.4414H19.9747C20.6827 28.2723 21.2216 27.8548 21.6114 27.3261C21.6846 27.2326 21.7502 27.1346 21.8106 27.0312C22.0537 26.6206 22.2189 26.1628 22.3086 25.707V25.7011C22.3164 25.6526 22.3223 25.6039 22.3282 25.5552C22.3336 25.5107 22.339 25.4662 22.3458 25.4219C22.5193 24.6014 22.5944 23.7639 22.6691 22.9309C22.7029 22.5539 22.7366 22.1778 22.7793 21.8047C22.7831 21.7709 22.7904 21.7375 22.8008 21.7051V21.7031C22.8362 21.1625 22.8573 20.6206 22.8784 20.0788L22.8868 19.8633C22.9333 18.9098 22.9669 17.9549 22.9766 17H22.9844C22.9865 16.818 22.9839 16.6361 22.9813 16.4542C22.9803 16.3822 22.9792 16.3102 22.9785 16.2383C22.9782 16.2181 22.9784 16.1979 22.9785 16.1777C22.9786 16.1581 22.9787 16.1386 22.9785 16.1191C22.9784 16.073 22.9775 16.0269 22.9765 15.9808C22.9757 15.9371 22.9748 15.8934 22.9746 15.8496C22.973 15.3079 22.968 14.7662 22.959 14.2246C22.9572 14.114 22.9538 14.0036 22.9505 13.8931C22.9479 13.8083 22.9453 13.7235 22.9434 13.6387C22.9392 13.4668 22.9349 13.295 22.9298 13.1231C22.9127 12.5205 22.8876 11.9183 22.8516 11.3165C22.846 11.2066 22.8417 11.0965 22.8374 10.9865C22.8315 10.8373 22.8256 10.688 22.8165 10.5391C22.8147 10.5337 22.8136 10.5282 22.8125 10.5226L22.8106 10.5137C22.8082 10.4414 22.8055 10.3691 22.8008 10.2969V10.2949C22.7903 10.2625 22.7831 10.2291 22.7793 10.1953C22.7658 10.0777 22.7553 9.9585 22.7448 9.83948C22.7395 9.77975 22.7342 9.71954 22.7285 9.66016L22.7226 9.60352C22.7175 9.54595 22.7121 9.48855 22.7067 9.43118C22.7001 9.36175 22.6935 9.2922 22.6875 9.22266C22.6827 9.17309 22.6783 9.1235 22.6739 9.0739C22.6684 9.01097 22.6628 8.94765 22.6563 8.88477C22.6534 8.84992 22.6488 8.81528 22.6442 8.78064L22.6407 8.75391L22.6334 8.6705C22.6058 8.35587 22.5783 8.04276 22.5411 7.72852C22.4653 7.02343 22.3548 6.32623 22.1055 5.67187C22.0948 5.63961 22.0865 5.60693 22.0781 5.57426C22.0731 5.55468 22.0681 5.53511 22.0625 5.51562L22.059 5.50259C22.056 5.49125 22.053 5.47993 22.0489 5.46875L22.0469 5.45898C22.0469 5.45898 22.0456 5.45323 22.0439 5.44615C22.0423 5.43925 22.0404 5.43109 22.0391 5.42578C21.9539 5.17435 21.8237 4.95382 21.6738 4.74804C21.5959 4.64107 21.5103 4.54023 21.418 4.44531C21.4048 4.43173 21.3934 4.41659 21.382 4.40146C21.3689 4.38403 21.3557 4.36659 21.3398 4.35156L21.334 4.3457C21.3161 4.32378 21.3009 4.30085 21.2857 4.27792C21.2675 4.25048 21.2494 4.22299 21.2265 4.19726L21.2228 4.19393C21.2204 4.19166 21.2179 4.18935 21.2148 4.18749L21.2053 4.18128L21.1972 4.17577C21.0979 4.10972 20.9951 4.05339 20.8921 3.99699L20.83 3.96288L20.8183 3.95702C20.8152 3.95516 20.8123 3.95311 20.8094 3.95107C20.8066 3.9491 20.8037 3.94711 20.8007 3.9453C20.7972 3.94311 20.7935 3.94122 20.7898 3.93933C20.7878 3.93831 20.7858 3.93729 20.7838 3.93622C20.7823 3.93538 20.7808 3.93451 20.7793 3.93358C20.7819 3.93521 20.7844 3.93698 20.7869 3.9388C20.7877 3.93939 20.7885 3.93998 20.7893 3.94058C20.7924 3.94287 20.7955 3.94519 20.7988 3.94725C20.7227 3.89961 20.6444 3.85502 20.5646 3.81299C20.5115 3.7828 20.458 3.75311 20.4024 3.72656C20.3981 3.72369 20.3951 3.72137 20.3923 3.71934L20.3887 3.71679L20.3751 3.71288L20.3692 3.71093L20.3614 3.70702C20.3307 3.69277 20.2991 3.68053 20.2675 3.66828C20.246 3.65993 20.2244 3.65157 20.2031 3.64257C19.9388 3.53013 19.6655 3.43689 19.3868 3.375C19.3822 3.374 19.3776 3.37352 19.373 3.37303C19.3698 3.37269 19.3666 3.37236 19.3635 3.37185C19.3621 3.37163 19.3608 3.37138 19.3594 3.37109C19.3549 3.36988 19.3502 3.369 19.3456 3.36812C19.3411 3.36726 19.3365 3.3664 19.3321 3.36523C18.2568 3.08264 17.1164 3.02499 16.0196 3H15.9825ZM22.959 14.2246L22.9512 14.2266C22.9503 14.1786 22.9499 14.1306 22.9494 14.0826C22.9489 14.0277 22.9485 13.9729 22.9473 13.918C22.9478 13.9402 22.949 13.9623 22.9502 13.9844C22.9515 14.0065 22.9527 14.0287 22.9532 14.0508C22.9538 14.0798 22.955 14.1088 22.9561 14.1377C22.9572 14.1667 22.9583 14.1956 22.959 14.2246ZM16 6.2929L20.3536 10.6465L19.6465 11.3536L16 7.70712L12.3536 11.3536L11.6465 10.6465L16 6.2929ZM19.3536 12.6465L16 9.2929L12.6465 12.6465L13.3536 13.3536L16 10.7071L18.6465 13.3536L19.3536 12.6465ZM18.3536 14.6465L16 12.2929L13.6465 14.6465L14.3536 15.3536L16 13.7071L17.6465 15.3536L18.3536 14.6465Z" fill="#555761"/>
</svg>
