<svg width="48" height="48" viewBox="0 0 48 48" fill="none" xmlns="http://www.w3.org/2000/svg">
<path opacity="0.15" d="M21 6.5C18.2412 6.5 16 8.74117 16 11.5C16 14.2588 18.2412 16.5 21 16.5C23.7588 16.5 26 14.2588 26 11.5C26 8.74117 23.7588 6.5 21 6.5Z" fill="black"/>
<path d="M21 5C18.2412 5 16 7.24117 16 10C16 12.7588 18.2412 15 21 15C23.7588 15 26 12.7588 26 10C26 7.24117 23.7588 5 21 5V5Z" fill="url(#paint0_linear_510_156)"/>
<path opacity="0.5" d="M25 9.99986C25 12.2091 23.209 14 21.0001 14C18.7909 14 17 12.209 17 9.99986C17 7.79075 18.7909 6 21.0001 6C23.209 6 25 7.79075 25 9.99986V9.99986Z" stroke="url(#paint1_linear_510_156)" stroke-linecap="round" stroke-linejoin="round"/>
<path opacity="0.5" d="M21 5C18.2412 5 16 7.24117 16 10C16 12.7588 18.2412 15 21 15C23.7588 15 26 12.7588 26 10C26 7.24117 23.7588 5 21 5V5Z" stroke="#6F0000" stroke-linecap="round" stroke-linejoin="round"/>
<path opacity="0.02" fill-rule="evenodd" clip-rule="evenodd" d="M22.9893 12.9893V26.8387L26.0884 23.0595L28.1326 27.9922C28.1811 28.114 28.2533 28.2249 28.345 28.3186C28.4367 28.4122 28.5461 28.4867 28.6669 28.5377C28.7877 28.5887 28.9174 28.6152 29.0484 28.6157C29.1795 28.6161 29.3094 28.5905 29.4305 28.5403C29.5516 28.4901 29.6615 28.4164 29.7539 28.3233C29.8463 28.2303 29.9192 28.1198 29.9685 27.9984C30.0178 27.8769 30.0425 27.7469 30.0411 27.6158C30.0397 27.4847 30.0122 27.3552 29.9604 27.2348L27.8717 22.1939L32.2036 22.2036L22.9893 12.9893Z" fill="black" stroke="black" stroke-width="6" stroke-linejoin="round"/>
<path opacity="0.2" fill-rule="evenodd" clip-rule="evenodd" d="M22.9893 12.9893V26.8387L26.0884 23.0595L28.1326 27.9922C28.1811 28.114 28.2533 28.2249 28.345 28.3186C28.4367 28.4122 28.5461 28.4867 28.6669 28.5377C28.7877 28.5887 28.9174 28.6152 29.0484 28.6157C29.1795 28.6161 29.3094 28.5905 29.4305 28.5403C29.5516 28.4901 29.6615 28.4164 29.7539 28.3233C29.8463 28.2303 29.9192 28.1198 29.9685 27.9984C30.0178 27.8769 30.0425 27.7469 30.0411 27.6158C30.0397 27.4847 30.0122 27.3552 29.9604 27.2348L27.8717 22.1939L32.2036 22.2036L22.9893 12.9893Z" fill="black" stroke="black" stroke-width="2" stroke-linejoin="round"/>
<path opacity="0.05" fill-rule="evenodd" clip-rule="evenodd" d="M22.9893 12.9893V26.8387L26.0884 23.0595L28.1326 27.9922C28.1811 28.114 28.2533 28.2249 28.345 28.3186C28.4367 28.4122 28.5461 28.4867 28.6669 28.5377C28.7877 28.5887 28.9174 28.6152 29.0484 28.6157C29.1795 28.6161 29.3094 28.5905 29.4305 28.5403C29.5516 28.4901 29.6615 28.4164 29.7539 28.3233C29.8463 28.2303 29.9192 28.1198 29.9685 27.9984C30.0178 27.8769 30.0425 27.7469 30.0411 27.6158C30.0397 27.4847 30.0122 27.3552 29.9604 27.2348L27.8717 22.1939L32.2036 22.2036L22.9893 12.9893Z" fill="black" stroke="black" stroke-width="4" stroke-linejoin="round"/>
<path fill-rule="evenodd" clip-rule="evenodd" d="M22 12V25.8495L25.0991 22.0702L27.1433 27.0029C27.1918 27.1247 27.264 27.2357 27.3557 27.3293C27.4474 27.423 27.5569 27.4975 27.6776 27.5485C27.7984 27.5995 27.9281 27.626 28.0592 27.6264C28.1903 27.6269 28.3202 27.6013 28.4413 27.5511C28.5624 27.5009 28.6723 27.4271 28.7647 27.3341C28.857 27.2411 28.93 27.1306 28.9793 27.0091C29.0286 26.8877 29.0532 26.7576 29.0518 26.6265C29.0504 26.4954 29.023 26.3659 28.9711 26.2455L26.8825 21.2046L31.2143 21.2143L22 12Z" stroke="white" stroke-width="2"/>
<path fill-rule="evenodd" clip-rule="evenodd" d="M22 12V25.8495L25.0991 22.0702L27.1433 27.0029C27.1918 27.1247 27.264 27.2357 27.3557 27.3293C27.4474 27.423 27.5569 27.4975 27.6776 27.5485C27.7984 27.5995 27.9281 27.626 28.0592 27.6264C28.1903 27.6269 28.3202 27.6013 28.4413 27.5511C28.5624 27.5009 28.6723 27.4271 28.7647 27.3341C28.857 27.2411 28.93 27.1306 28.9793 27.0091C29.0286 26.8877 29.0532 26.7576 29.0518 26.6265C29.0504 26.4954 29.023 26.3659 28.9711 26.2455L26.8825 21.2046L31.2143 21.2143L22 12Z" fill="url(#paint2_linear_510_156)"/>
<path fill-rule="evenodd" clip-rule="evenodd" d="M22 12V25.8495L25.0991 22.0702L27.1433 27.0029C27.1918 27.1247 27.264 27.2357 27.3557 27.3293C27.4474 27.423 27.5569 27.4975 27.6776 27.5485C27.7984 27.5995 27.9281 27.626 28.0592 27.6264C28.1903 27.6269 28.3202 27.6013 28.4413 27.5511C28.5624 27.5009 28.6723 27.4271 28.7647 27.3341C28.857 27.2411 28.93 27.1306 28.9793 27.0091C29.0286 26.8877 29.0532 26.7576 29.0518 26.6265C29.0504 26.4954 29.023 26.3659 28.9711 26.2455L26.8825 21.2046L31.2143 21.2143L22 12Z" fill="black" fill-opacity="0.2"/>
<defs>
<linearGradient id="paint0_linear_510_156" x1="21" y1="5" x2="21" y2="14.9729" gradientUnits="userSpaceOnUse">
<stop stop-color="#ED5353"/>
<stop offset="1" stop-color="#C6262E"/>
</linearGradient>
<linearGradient id="paint1_linear_510_156" x1="20.8856" y1="6.00581" x2="20.8856" y2="13.5947" gradientUnits="userSpaceOnUse">
<stop stop-color="white"/>
<stop offset="0.507761" stop-color="white" stop-opacity="0.235294"/>
<stop offset="0.834566" stop-color="white" stop-opacity="0.156863"/>
<stop offset="1" stop-color="white" stop-opacity="0.392157"/>
</linearGradient>
<linearGradient id="paint2_linear_510_156" x1="23.9785" y1="30.1175" x2="23.9785" y2="10.3326" gradientUnits="userSpaceOnUse">
<stop/>
<stop offset="1" stop-color="#333333"/>
</linearGradient>
</defs>
</svg>
