<svg width="48" height="48" viewBox="0 0 48 48" fill="none" xmlns="http://www.w3.org/2000/svg">
<path opacity="0.15" d="M19.8514 10.0555C16.0711 10.0555 13 13.1265 13 16.9069C13 20.6873 16.0711 23.7583 19.8514 23.7583C23.6318 23.7583 26.7029 20.6873 26.7029 16.9069C26.7029 13.1265 23.6318 10.0555 19.8514 10.0555Z" fill="black"/>
<path d="M19.8514 8C16.0711 8 13 11.0711 13 14.8514C13 18.6318 16.0711 21.7029 19.8514 21.7029C23.6318 21.7029 26.7029 18.6318 26.7029 14.8514C26.7029 11.0711 23.6318 8 19.8514 8V8Z" fill="url(#paint0_linear_504_93)"/>
<path opacity="0.5" d="M25.3326 14.8513C25.3326 17.8785 22.8784 20.3326 19.8515 20.3326C16.8243 20.3326 14.3703 17.8785 14.3703 14.8513C14.3703 11.8241 16.8243 9.3703 19.8515 9.3703C22.8784 9.3703 25.3326 11.8241 25.3326 14.8513V14.8513Z" stroke="url(#paint1_linear_504_93)" stroke-linecap="round" stroke-linejoin="round"/>
<path opacity="0.5" d="M19.8514 8C16.0711 8 13 11.0711 13 14.8514C13 18.6318 16.0711 21.7029 19.8514 21.7029C23.6318 21.7029 26.7029 18.6318 26.7029 14.8514C26.7029 11.0711 23.6318 8 19.8514 8V8Z" stroke="#6F0000" stroke-linecap="round" stroke-linejoin="round"/>
<path opacity="0.02" fill-rule="evenodd" clip-rule="evenodd" d="M22.5773 18.9476V37.9253L26.824 32.7467L29.6251 39.5059C29.6916 39.6728 29.7905 39.8249 29.9162 39.9532C30.0419 40.0815 30.1918 40.1836 30.3573 40.2535C30.5228 40.3234 30.7005 40.3597 30.8801 40.3603C31.0598 40.3609 31.2377 40.3258 31.4037 40.257C31.5696 40.1882 31.7203 40.0872 31.8468 39.9597C31.9734 39.8322 32.0733 39.6809 32.1409 39.5144C32.2084 39.348 32.2422 39.1698 32.2403 38.9901C32.2384 38.8105 32.2008 38.6331 32.1297 38.4681L29.2677 31.5606L35.2036 31.5739L22.5773 18.9476Z" fill="black" stroke="black" stroke-width="6" stroke-linejoin="round"/>
<path opacity="0.2" fill-rule="evenodd" clip-rule="evenodd" d="M22.5773 18.9476V37.9253L26.824 32.7467L29.6251 39.5059C29.6916 39.6728 29.7905 39.8249 29.9162 39.9532C30.0419 40.0815 30.1918 40.1836 30.3573 40.2535C30.5228 40.3234 30.7005 40.3597 30.8801 40.3603C31.0598 40.3609 31.2377 40.3258 31.4037 40.257C31.5696 40.1882 31.7203 40.0872 31.8468 39.9597C31.9734 39.8322 32.0733 39.6809 32.1409 39.5144C32.2084 39.348 32.2422 39.1698 32.2403 38.9901C32.2384 38.8105 32.2008 38.6331 32.1297 38.4681L29.2677 31.5606L35.2036 31.5739L22.5773 18.9476Z" fill="black" stroke="black" stroke-width="2" stroke-linejoin="round"/>
<path opacity="0.05" fill-rule="evenodd" clip-rule="evenodd" d="M22.5773 18.9476V37.9253L26.824 32.7467L29.6251 39.5059C29.6916 39.6728 29.7905 39.8249 29.9162 39.9532C30.0419 40.0815 30.1918 40.1836 30.3573 40.2535C30.5228 40.3234 30.7005 40.3597 30.8801 40.3603C31.0598 40.3609 31.2377 40.3258 31.4037 40.257C31.5696 40.1882 31.7203 40.0872 31.8468 39.9597C31.9734 39.8322 32.0733 39.6809 32.1409 39.5144C32.2084 39.348 32.2422 39.1698 32.2403 38.9901C32.2384 38.8105 32.2008 38.6331 32.1297 38.4681L29.2677 31.5606L35.2036 31.5739L22.5773 18.9476Z" fill="black" stroke="black" stroke-width="4" stroke-linejoin="round"/>
<path fill-rule="evenodd" clip-rule="evenodd" d="M21.2217 17.592V36.5698L25.4684 31.3911L28.2696 38.1504C28.336 38.3173 28.4349 38.4693 28.5606 38.5976C28.6863 38.726 28.8363 38.8281 29.0017 38.8979C29.1672 38.9678 29.345 39.0041 29.5246 39.0047C29.7042 39.0053 29.8822 38.9702 30.0481 38.9015C30.2141 38.8327 30.3647 38.7316 30.4913 38.6042C30.6178 38.4767 30.7178 38.3253 30.7853 38.1589C30.8529 37.9924 30.8867 37.8142 30.8848 37.6346C30.8829 37.455 30.8453 37.2775 30.7742 37.1125L27.9121 30.205L33.848 30.2183L21.2217 17.592Z" stroke="white" stroke-width="2"/>
<path fill-rule="evenodd" clip-rule="evenodd" d="M21.2217 17.592V36.5698L25.4684 31.3911L28.2696 38.1504C28.336 38.3173 28.4349 38.4693 28.5606 38.5976C28.6863 38.726 28.8363 38.8281 29.0017 38.8979C29.1672 38.9678 29.345 39.0041 29.5246 39.0047C29.7042 39.0053 29.8822 38.9702 30.0481 38.9015C30.2141 38.8327 30.3647 38.7316 30.4913 38.6042C30.6178 38.4767 30.7178 38.3253 30.7853 38.1589C30.8529 37.9924 30.8867 37.8142 30.8848 37.6346C30.8829 37.455 30.8453 37.2775 30.7742 37.1125L27.9121 30.205L33.848 30.2183L21.2217 17.592Z" fill="url(#paint2_linear_504_93)"/>
<path fill-rule="evenodd" clip-rule="evenodd" d="M21.2217 17.592V36.5698L25.4684 31.3911L28.2696 38.1504C28.336 38.3173 28.4349 38.4693 28.5606 38.5976C28.6863 38.726 28.8363 38.8281 29.0017 38.8979C29.1672 38.9678 29.345 39.0041 29.5246 39.0047C29.7042 39.0053 29.8822 38.9702 30.0481 38.9015C30.2141 38.8327 30.3647 38.7316 30.4913 38.6042C30.6178 38.4767 30.7178 38.3253 30.7853 38.1589C30.8529 37.9924 30.8867 37.8142 30.8848 37.6346C30.8829 37.455 30.8453 37.2775 30.7742 37.1125L27.9121 30.205L33.848 30.2183L21.2217 17.592Z" fill="black" fill-opacity="0.2"/>
<defs>
<linearGradient id="paint0_linear_504_93" x1="19.8514" y1="8" x2="19.8514" y2="21.6657" gradientUnits="userSpaceOnUse">
<stop stop-color="#ED5353"/>
<stop offset="1" stop-color="#C6262E"/>
</linearGradient>
<linearGradient id="paint1_linear_504_93" x1="19.6947" y1="9.37826" x2="19.6947" y2="19.7772" gradientUnits="userSpaceOnUse">
<stop stop-color="white"/>
<stop offset="0.507761" stop-color="white" stop-opacity="0.235294"/>
<stop offset="0.834566" stop-color="white" stop-opacity="0.156863"/>
<stop offset="1" stop-color="white" stop-opacity="0.392157"/>
</linearGradient>
<linearGradient id="paint2_linear_504_93" x1="23.9328" y1="42.4183" x2="23.9328" y2="15.3072" gradientUnits="userSpaceOnUse">
<stop/>
<stop offset="1" stop-color="#333333"/>
</linearGradient>
</defs>
</svg>
