<svg width="48" height="48" viewBox="0 0 48 48" fill="none" xmlns="http://www.w3.org/2000/svg">
<path opacity="0.15" d="M19.8514 4.05545C16.0711 4.05545 13 7.1265 13 10.9069C13 14.6873 16.0711 17.7583 19.8514 17.7583C23.6318 17.7583 26.7029 14.6873 26.7029 10.9069C26.7029 7.1265 23.6318 4.05545 19.8514 4.05545Z" fill="black"/>
<path d="M19.8514 2C16.0711 2 13 5.07105 13 8.85144C13 12.6318 16.0711 15.7029 19.8514 15.7029C23.6318 15.7029 26.7029 12.6318 26.7029 8.85144C26.7029 5.07105 23.6318 2 19.8514 2V2Z" fill="url(#paint0_linear_510_135)"/>
<path opacity="0.5" d="M25.3326 8.85126C25.3326 11.8785 22.8784 14.3326 19.8515 14.3326C16.8243 14.3326 14.3703 11.8785 14.3703 8.85126C14.3703 5.82415 16.8243 3.3703 19.8515 3.3703C22.8784 3.3703 25.3326 5.82415 25.3326 8.85126V8.85126Z" stroke="url(#paint1_linear_510_135)" stroke-linecap="round" stroke-linejoin="round"/>
<path opacity="0.5" d="M19.8514 2C16.0711 2 13 5.07105 13 8.85145C13 12.6318 16.0711 15.7029 19.8514 15.7029C23.6318 15.7029 26.7029 12.6318 26.7029 8.85145C26.7029 5.07105 23.6318 2 19.8514 2V2Z" stroke="#6F0000" stroke-linecap="round" stroke-linejoin="round"/>
<path opacity="0.02" fill-rule="evenodd" clip-rule="evenodd" d="M22.5773 12.9476V31.9253L26.824 26.7467L29.6252 33.5059C29.6916 33.6728 29.7905 33.8249 29.9162 33.9532C30.0419 34.0815 30.1919 34.1836 30.3573 34.2535C30.5228 34.3234 30.7005 34.3597 30.8802 34.3603C31.0598 34.3609 31.2378 34.3258 31.4037 34.257C31.5697 34.1882 31.7203 34.0872 31.8468 33.9597C31.9734 33.8322 32.0734 33.6809 32.1409 33.5144C32.2085 33.348 32.2423 33.1698 32.2403 32.9901C32.2384 32.8105 32.2008 32.6331 32.1298 32.4681L29.2677 25.5606L35.2036 25.5739L22.5773 12.9476Z" fill="black" stroke="black" stroke-width="6" stroke-linejoin="round"/>
<path opacity="0.2" fill-rule="evenodd" clip-rule="evenodd" d="M22.5773 12.9476V31.9253L26.824 26.7467L29.6252 33.5059C29.6916 33.6728 29.7905 33.8249 29.9162 33.9532C30.0419 34.0815 30.1919 34.1836 30.3573 34.2535C30.5228 34.3234 30.7005 34.3597 30.8802 34.3603C31.0598 34.3609 31.2378 34.3258 31.4037 34.257C31.5697 34.1882 31.7203 34.0872 31.8468 33.9597C31.9734 33.8322 32.0734 33.6809 32.1409 33.5144C32.2085 33.348 32.2423 33.1698 32.2403 32.9901C32.2384 32.8105 32.2008 32.6331 32.1298 32.4681L29.2677 25.5606L35.2036 25.5739L22.5773 12.9476Z" fill="black" stroke="black" stroke-width="2" stroke-linejoin="round"/>
<path opacity="0.05" fill-rule="evenodd" clip-rule="evenodd" d="M22.5773 12.9476V31.9253L26.824 26.7467L29.6252 33.5059C29.6916 33.6728 29.7905 33.8249 29.9162 33.9532C30.0419 34.0815 30.1919 34.1836 30.3573 34.2535C30.5228 34.3234 30.7005 34.3597 30.8802 34.3603C31.0598 34.3609 31.2378 34.3258 31.4037 34.257C31.5697 34.1882 31.7203 34.0872 31.8468 33.9597C31.9734 33.8322 32.0734 33.6809 32.1409 33.5144C32.2085 33.348 32.2423 33.1698 32.2403 32.9901C32.2384 32.8105 32.2008 32.6331 32.1298 32.4681L29.2677 25.5606L35.2036 25.5739L22.5773 12.9476Z" fill="black" stroke="black" stroke-width="4" stroke-linejoin="round"/>
<path fill-rule="evenodd" clip-rule="evenodd" d="M21.2217 11.592V30.5698L25.4684 25.3911L28.2696 32.1504C28.336 32.3173 28.4349 32.4693 28.5606 32.5976C28.6863 32.726 28.8363 32.8281 29.0017 32.8979C29.1672 32.9678 29.345 33.0041 29.5246 33.0047C29.7042 33.0053 29.8822 32.9702 30.0481 32.9015C30.2141 32.8327 30.3647 32.7316 30.4913 32.6042C30.6178 32.4767 30.7178 32.3253 30.7853 32.1589C30.8529 31.9924 30.8867 31.8142 30.8848 31.6346C30.8829 31.455 30.8453 31.2775 30.7742 31.1125L27.9121 24.205L33.848 24.2183L21.2217 11.592Z" stroke="white" stroke-width="2"/>
<path fill-rule="evenodd" clip-rule="evenodd" d="M21.2217 11.592V30.5698L25.4684 25.3911L28.2696 32.1504C28.336 32.3173 28.4349 32.4693 28.5606 32.5976C28.6863 32.726 28.8363 32.8281 29.0017 32.8979C29.1672 32.9678 29.345 33.0041 29.5246 33.0047C29.7042 33.0053 29.8822 32.9702 30.0481 32.9015C30.2141 32.8327 30.3647 32.7316 30.4913 32.6042C30.6178 32.4767 30.7178 32.3253 30.7853 32.1589C30.8529 31.9924 30.8867 31.8142 30.8848 31.6346C30.8829 31.455 30.8453 31.2775 30.7742 31.1125L27.9121 24.205L33.848 24.2183L21.2217 11.592Z" fill="url(#paint2_linear_510_135)"/>
<path fill-rule="evenodd" clip-rule="evenodd" d="M21.2217 11.592V30.5698L25.4684 25.3911L28.2696 32.1504C28.336 32.3173 28.4349 32.4693 28.5606 32.5976C28.6863 32.726 28.8363 32.8281 29.0017 32.8979C29.1672 32.9678 29.345 33.0041 29.5246 33.0047C29.7042 33.0053 29.8822 32.9702 30.0481 32.9015C30.2141 32.8327 30.3647 32.7316 30.4913 32.6042C30.6178 32.4767 30.7178 32.3253 30.7853 32.1589C30.8529 31.9924 30.8867 31.8142 30.8848 31.6346C30.8829 31.455 30.8453 31.2775 30.7742 31.1125L27.9121 24.205L33.848 24.2183L21.2217 11.592Z" fill="black" fill-opacity="0.2"/>
<defs>
<linearGradient id="paint0_linear_510_135" x1="19.8514" y1="2" x2="19.8514" y2="15.6657" gradientUnits="userSpaceOnUse">
<stop stop-color="#ED5353"/>
<stop offset="1" stop-color="#C6262E"/>
</linearGradient>
<linearGradient id="paint1_linear_510_135" x1="19.6947" y1="3.37826" x2="19.6947" y2="13.7772" gradientUnits="userSpaceOnUse">
<stop stop-color="white"/>
<stop offset="0.507761" stop-color="white" stop-opacity="0.235294"/>
<stop offset="0.834566" stop-color="white" stop-opacity="0.156863"/>
<stop offset="1" stop-color="white" stop-opacity="0.392157"/>
</linearGradient>
<linearGradient id="paint2_linear_510_135" x1="23.9328" y1="36.4183" x2="23.9328" y2="9.30716" gradientUnits="userSpaceOnUse">
<stop/>
<stop offset="1" stop-color="#333333"/>
</linearGradient>
</defs>
</svg>
