<svg width="48" height="48" viewBox="0 0 48 48" fill="none" xmlns="http://www.w3.org/2000/svg">
<path opacity="0.15" d="M21 4.5C18.2412 4.5 16 6.74117 16 9.5C16 12.2588 18.2412 14.5 21 14.5C23.7588 14.5 26 12.2588 26 9.5C26 6.74117 23.7588 4.5 21 4.5Z" fill="black"/>
<path d="M21 3C18.2412 3 16 5.24117 16 8C16 10.7588 18.2412 13 21 13C23.7588 13 26 10.7588 26 8C26 5.24117 23.7588 3 21 3V3Z" fill="url(#paint0_linear_510_156)"/>
<path opacity="0.5" d="M25 7.99986C25 10.2091 23.209 12 21.0001 12C18.7909 12 17 10.209 17 7.99986C17 5.79075 18.7909 4 21.0001 4C23.209 4 25 5.79075 25 7.99986V7.99986Z" stroke="url(#paint1_linear_510_156)" stroke-linecap="round" stroke-linejoin="round"/>
<path opacity="0.5" d="M21 3C18.2412 3 16 5.24117 16 8C16 10.7588 18.2412 13 21 13C23.7588 13 26 10.7588 26 8C26 5.24117 23.7588 3 21 3V3Z" stroke="#6F0000" stroke-linecap="round" stroke-linejoin="round"/>
<path opacity="0.02" fill-rule="evenodd" clip-rule="evenodd" d="M22.9893 10.9893V24.8387L26.0884 21.0595L28.1326 25.9922C28.1811 26.114 28.2533 26.2249 28.345 26.3186C28.4367 26.4122 28.5461 26.4867 28.6669 26.5377C28.7877 26.5887 28.9174 26.6152 29.0484 26.6157C29.1795 26.6161 29.3094 26.5905 29.4305 26.5403C29.5516 26.4901 29.6615 26.4164 29.7539 26.3233C29.8463 26.2303 29.9192 26.1198 29.9685 25.9984C30.0178 25.8769 30.0425 25.7469 30.0411 25.6158C30.0397 25.4847 30.0122 25.3552 29.9604 25.2348L27.8717 20.1939L32.2036 20.2036L22.9893 10.9893Z" fill="black" stroke="black" stroke-width="6" stroke-linejoin="round"/>
<path opacity="0.2" fill-rule="evenodd" clip-rule="evenodd" d="M22.9893 10.9893V24.8387L26.0884 21.0595L28.1326 25.9922C28.1811 26.114 28.2533 26.2249 28.345 26.3186C28.4367 26.4122 28.5461 26.4867 28.6669 26.5377C28.7877 26.5887 28.9174 26.6152 29.0484 26.6157C29.1795 26.6161 29.3094 26.5905 29.4305 26.5403C29.5516 26.4901 29.6615 26.4164 29.7539 26.3233C29.8463 26.2303 29.9192 26.1198 29.9685 25.9984C30.0178 25.8769 30.0425 25.7469 30.0411 25.6158C30.0397 25.4847 30.0122 25.3552 29.9604 25.2348L27.8717 20.1939L32.2036 20.2036L22.9893 10.9893Z" fill="black" stroke="black" stroke-width="2" stroke-linejoin="round"/>
<path opacity="0.05" fill-rule="evenodd" clip-rule="evenodd" d="M22.9893 10.9893V24.8387L26.0884 21.0595L28.1326 25.9922C28.1811 26.114 28.2533 26.2249 28.345 26.3186C28.4367 26.4122 28.5461 26.4867 28.6669 26.5377C28.7877 26.5887 28.9174 26.6152 29.0484 26.6157C29.1795 26.6161 29.3094 26.5905 29.4305 26.5403C29.5516 26.4901 29.6615 26.4164 29.7539 26.3233C29.8463 26.2303 29.9192 26.1198 29.9685 25.9984C30.0178 25.8769 30.0425 25.7469 30.0411 25.6158C30.0397 25.4847 30.0122 25.3552 29.9604 25.2348L27.8717 20.1939L32.2036 20.2036L22.9893 10.9893Z" fill="black" stroke="black" stroke-width="4" stroke-linejoin="round"/>
<path fill-rule="evenodd" clip-rule="evenodd" d="M22 10V23.8495L25.0991 20.0702L27.1433 25.0029C27.1918 25.1247 27.264 25.2357 27.3557 25.3293C27.4474 25.423 27.5569 25.4975 27.6776 25.5485C27.7984 25.5995 27.9281 25.626 28.0592 25.6264C28.1903 25.6269 28.3202 25.6013 28.4413 25.5511C28.5624 25.5009 28.6723 25.4271 28.7647 25.3341C28.857 25.2411 28.93 25.1306 28.9793 25.0091C29.0286 24.8877 29.0532 24.7576 29.0518 24.6265C29.0504 24.4954 29.023 24.3659 28.9711 24.2455L26.8825 19.2046L31.2143 19.2143L22 10Z" stroke="white" stroke-width="2"/>
<path fill-rule="evenodd" clip-rule="evenodd" d="M22 10V23.8495L25.0991 20.0702L27.1433 25.0029C27.1918 25.1247 27.264 25.2357 27.3557 25.3293C27.4474 25.423 27.5569 25.4975 27.6776 25.5485C27.7984 25.5995 27.9281 25.626 28.0592 25.6264C28.1903 25.6269 28.3202 25.6013 28.4413 25.5511C28.5624 25.5009 28.6723 25.4271 28.7647 25.3341C28.857 25.2411 28.93 25.1306 28.9793 25.0091C29.0286 24.8877 29.0532 24.7576 29.0518 24.6265C29.0504 24.4954 29.023 24.3659 28.9711 24.2455L26.8825 19.2046L31.2143 19.2143L22 10Z" fill="url(#paint2_linear_510_156)"/>
<path fill-rule="evenodd" clip-rule="evenodd" d="M22 10V23.8495L25.0991 20.0702L27.1433 25.0029C27.1918 25.1247 27.264 25.2357 27.3557 25.3293C27.4474 25.423 27.5569 25.4975 27.6776 25.5485C27.7984 25.5995 27.9281 25.626 28.0592 25.6264C28.1903 25.6269 28.3202 25.6013 28.4413 25.5511C28.5624 25.5009 28.6723 25.4271 28.7647 25.3341C28.857 25.2411 28.93 25.1306 28.9793 25.0091C29.0286 24.8877 29.0532 24.7576 29.0518 24.6265C29.0504 24.4954 29.023 24.3659 28.9711 24.2455L26.8825 19.2046L31.2143 19.2143L22 10Z" fill="black" fill-opacity="0.2"/>
<defs>
<linearGradient id="paint0_linear_510_156" x1="21" y1="3" x2="21" y2="12.9729" gradientUnits="userSpaceOnUse">
<stop stop-color="#ED5353"/>
<stop offset="1" stop-color="#C6262E"/>
</linearGradient>
<linearGradient id="paint1_linear_510_156" x1="20.8856" y1="4.00581" x2="20.8856" y2="11.5947" gradientUnits="userSpaceOnUse">
<stop stop-color="white"/>
<stop offset="0.507761" stop-color="white" stop-opacity="0.235294"/>
<stop offset="0.834566" stop-color="white" stop-opacity="0.156863"/>
<stop offset="1" stop-color="white" stop-opacity="0.392157"/>
</linearGradient>
<linearGradient id="paint2_linear_510_156" x1="23.9785" y1="28.1175" x2="23.9785" y2="8.33258" gradientUnits="userSpaceOnUse">
<stop/>
<stop offset="1" stop-color="#333333"/>
</linearGradient>
</defs>
</svg>
